<svg width="36" height="20" viewBox="0 0 36 20" fill="none" xmlns="http://www.w3.org/2000/svg">
<path d="M2.49878 19.074L18.0016 3.93122L33.5044 19.074C33.7814 19.3451 34.1532 19.4969 34.5404 19.4969C34.9276 19.4969 35.2994 19.3451 35.5764 19.074C35.7105 18.9423 35.8171 18.7852 35.8898 18.6117C35.9625 18.4383 36 18.252 36 18.0639C36 17.8757 35.9625 17.6895 35.8898 17.516C35.8171 17.3426 35.7105 17.1854 35.5764 17.0537L19.0841 0.941204C18.7945 0.658321 18.406 0.5 18.0016 0.5C17.5971 0.5 17.2087 0.658321 16.9191 0.941204L0.426777 17.0506C0.291714 17.1824 0.184361 17.34 0.111061 17.514C0.0377617 17.688 0 17.875 0 18.0639C0 18.2528 0.0377617 18.4398 0.111061 18.6138C0.184361 18.7878 0.291714 18.9454 0.426777 19.0771C0.703758 19.3482 1.07559 19.5 1.46278 19.5C1.84997 19.5 2.22179 19.3482 2.49878 19.0771V19.074Z" fill="black"/>
</svg>
