<svg width="1666" height="330" viewBox="0 0 1666 330" fill="none" xmlns="http://www.w3.org/2000/svg">
<g clip-path="url(#clip0_988_2326)">
<g opacity="0.9">
<g filter="url(#filter0_f_988_2326)">
<path d="M844.686 331.874C844.686 645.051 1098.03 898.93 1410.54 898.93C1723.05 898.93 1976.4 645.051 1976.4 331.874C1976.4 18.698 1723.05 -235.182 1410.54 -235.182C1098.03 -235.182 844.686 18.698 844.686 331.874Z" fill="#FFB001"/>
</g>
<g filter="url(#filter1_f_988_2326)">
</g>
<g filter="url(#filter2_f_988_2326)">
<path d="M-126.211 20.444C-126.211 270.322 76.086 472.888 325.633 472.888C575.179 472.888 777.477 270.322 777.477 20.444C777.477 -229.434 575.179 -432 325.633 -432C76.086 -432 -126.211 -229.434 -126.211 20.444Z" fill="#ED1E61"/>
</g>
<g filter="url(#filter3_f_988_2326)">
</g>
<g filter="url(#filter4_f_988_2326)">
</g>
<g filter="url(#filter5_f_988_2326)">
<path d="M105.41 390.079C105.41 594.224 270.901 759.715 475.046 759.715C679.19 759.715 844.682 594.224 844.682 390.079C844.682 185.935 679.19 20.4434 475.046 20.4434C270.901 20.4434 105.41 185.935 105.41 390.079Z" fill="#734AFE"/>
</g>
</g>
</g>
<defs>
<filter id="filter0_f_988_2326" x="409.686" y="-670.182" width="2001.71" height="2004.11" filterUnits="userSpaceOnUse" color-interpolation-filters="sRGB">
<feFlood flood-opacity="0" result="BackgroundImageFix"/>
<feBlend mode="normal" in="SourceGraphic" in2="BackgroundImageFix" result="shape"/>
<feGaussianBlur stdDeviation="217.5" result="effect1_foregroundBlur_988_2326"/>
</filter>
<filter id="filter1_f_988_2326" x="707.316" y="162.705" width="1773.69" height="1774.89" filterUnits="userSpaceOnUse" color-interpolation-filters="sRGB">
<feFlood flood-opacity="0" result="BackgroundImageFix"/>
<feBlend mode="normal" in="SourceGraphic" in2="BackgroundImageFix" result="shape"/>
<feGaussianBlur stdDeviation="217.5" result="effect1_foregroundBlur_988_2326"/>
</filter>
<filter id="filter2_f_988_2326" x="-561.211" y="-867" width="1773.69" height="1774.89" filterUnits="userSpaceOnUse" color-interpolation-filters="sRGB">
<feFlood flood-opacity="0" result="BackgroundImageFix"/>
<feBlend mode="normal" in="SourceGraphic" in2="BackgroundImageFix" result="shape"/>
<feGaussianBlur stdDeviation="217.5" result="effect1_foregroundBlur_988_2326"/>
</filter>
<filter id="filter3_f_988_2326" x="108.452" y="6.68555" width="1677.68" height="1680.08" filterUnits="userSpaceOnUse" color-interpolation-filters="sRGB">
<feFlood flood-opacity="0" result="BackgroundImageFix"/>
<feBlend mode="normal" in="SourceGraphic" in2="BackgroundImageFix" result="shape"/>
<feGaussianBlur stdDeviation="217.5" result="effect1_foregroundBlur_988_2326"/>
</filter>
<filter id="filter4_f_988_2326" x="-325.546" y="-47.4668" width="1840.46" height="1890.4" filterUnits="userSpaceOnUse" color-interpolation-filters="sRGB">
<feFlood flood-opacity="0" result="BackgroundImageFix"/>
<feBlend mode="normal" in="SourceGraphic" in2="BackgroundImageFix" result="shape"/>
<feGaussianBlur stdDeviation="217.5" result="effect1_foregroundBlur_988_2326"/>
</filter>
<filter id="filter5_f_988_2326" x="-329.59" y="-414.557" width="1609.27" height="1609.27" filterUnits="userSpaceOnUse" color-interpolation-filters="sRGB">
<feFlood flood-opacity="0" result="BackgroundImageFix"/>
<feBlend mode="normal" in="SourceGraphic" in2="BackgroundImageFix" result="shape"/>
<feGaussianBlur stdDeviation="217.5" result="effect1_foregroundBlur_988_2326"/>
</filter>
<clipPath id="clip0_988_2326">
<rect width="1666" height="330" fill="white"/>
</clipPath>
</defs>
</svg>
