<svg width="272" height="274" viewBox="0 0 272 274" fill="none" xmlns="http://www.w3.org/2000/svg">
                <path fill-rule="evenodd" clip-rule="evenodd" d="M129 21.5C128.93 21.005 128.901 20.2821 129.013 19.5831C129.506 19.7863 130.02 20.1161 130.502 20.6293C131.9 22.115 132.425 22.7693 132.513 22.9107L134.001 19.6265C133.359 18.8632 132.379 17.2414 132.788 16.0422C133.855 16.0141 134.926 16 136 16C170.447 16 201.505 30.5145 223.39 53.7613C222.574 54.2452 221.097 55.2221 221.299 55.5093C221.505 55.803 220.97 56.6536 220.677 57.0422C221.185 56.9597 222.354 56.8515 222.967 57.079C223.579 57.3066 223.728 56.819 223.725 56.5467L223.209 55.8123C223.44 55.5875 223.926 55.1927 224.47 54.9247C238.491 70.2154 248.599 89.1516 253.209 110.148C252.469 109.339 251.41 108.258 250.67 107.519C250.118 107.659 249.154 108.138 249.711 108.932C250.268 109.725 250.436 110.89 250.45 111.373C251.016 111.716 252.4 112.669 253.409 113.736C253.749 114.095 253.941 114.24 254.035 114.253C255.326 121.306 256 128.574 256 136C256 138.499 255.924 140.981 255.773 143.442L254.975 142.733C254.879 143.389 254.392 144.973 253.209 146.058C252.027 147.142 251.534 147.534 251.435 147.595L252.632 149.55C253.322 148.977 254.763 148.152 255.006 149.437C255.09 149.878 255.196 149.615 255.307 148.977C250.814 190.754 224.882 226.11 188.733 243.823L188.733 243.821C188.038 243.321 186.782 242.215 187.323 241.785C187.864 241.356 185.137 241.779 183.706 242.044L183.794 242.953C184.196 242.924 185.311 243.077 186.557 243.915C186.881 244.133 187.153 244.318 187.381 244.475C171.806 251.865 154.386 256 136 256C111.087 256 87.9474 248.408 68.7681 235.412L69.6768 234.309L71.4704 234.491L71.6061 235.899L74.3536 234.924C73.8391 234.5 72.5922 233.602 71.7205 233.402C70.8487 233.202 68.1489 231.97 66.9079 231.379L65.8435 233.366C37.2727 212.743 18.1419 179.855 16.169 142.418L17.967 142.541L19.3687 139.295L16.9565 138.639L16.3856 136.929L17.6131 136.227L16.0088 134.554C16.7353 73.0199 63.7771 22.6239 123.898 16.6027L123 17.5C123.667 17.6667 125.1 18.5 125.5 20.5C125.9 22.5 126 23.3333 126 23.5L129 21.5ZM252.452 111.447C252.533 111.195 252.819 110.83 253.384 110.961C253.567 111.822 253.74 112.686 253.904 113.553L253.892 113.527L253.879 113.499L253.862 113.465L253.844 113.43L252.452 111.447ZM129.977 16.1485C129.578 16.3149 129.173 16.4888 128.781 16.6608C128.208 16.5488 127.563 16.4393 126.916 16.3387C127.933 16.2626 128.954 16.1991 129.977 16.1485ZM136 240.123C78.4947 240.123 31.8772 193.506 31.8772 136C31.8772 78.4944 78.4947 31.877 136 31.877C193.506 31.877 240.123 78.4944 240.123 136C240.123 151.735 236.633 166.654 230.385 180.026C230.512 180.087 230.645 180.276 230.776 180.666C231.176 181.866 232.276 183.166 232.776 183.666C232.276 183.999 231.276 184.866 231.276 185.666C231.276 186.466 229.275 186.333 228.275 186.166C228.147 185.844 228.001 185.469 227.855 185.077C210.315 217.838 175.76 240.123 136 240.123ZM229.043 182.79C229.341 182.778 229.601 182.724 229.776 182.666V181.307C229.535 181.804 229.291 182.298 229.043 182.79ZM145.794 19.564L145.706 17.851C147.137 17.3517 149.864 16.5553 149.323 17.364C148.782 18.1728 150.038 20.2574 150.733 21.1986L150.379 23.7758C150.291 23.6344 149.803 22.9565 148.557 21.3766C147.311 19.7966 146.196 19.5099 145.794 19.564ZM162.536 241L161 241.8C161.683 241.889 163.151 242.333 163.56 243.4C163.97 244.467 164.072 244.911 164.072 245L167.144 243.933C167.077 243.688 167.047 243.338 167.135 242.991C167.59 243.1 168.059 243.268 168.502 243.518C169.9 244.307 170.425 244.654 170.513 244.729L172.001 242.986C171.243 242.507 170.012 241.393 171.159 240.763C172.067 240.265 169.373 240.814 167.002 241.361C165.627 241.219 163.824 241.084 162.536 241ZM234.684 86.0983L235.246 87.8327L234.864 88.5628L234.513 88.0281L234.057 86.8936L234.684 86.0983ZM79.8235 240.079L81.3669 241.351C81.7909 240.837 82.4209 239.758 81.5492 239.558L81.549 239.558L81.5486 239.557C80.8375 239.394 80.5907 239.338 80.4165 239.425C80.3239 239.472 80.2518 239.559 80.1415 239.693L79.8235 240.079ZM18.5725 125.088L18.0472 127.017L17.5648 126.886C17.3973 126.84 17.288 126.811 17.2074 126.745C17.0558 126.623 17.006 126.374 16.8625 125.658C16.6867 124.781 17.9292 124.912 18.5725 125.088Z" fill="#949494"/>
                <path fill-rule="evenodd" clip-rule="evenodd" d="M137 202C173.451 202 203 172.451 203 136C203 115.507 193.66 97.1958 179.005 85.0902L179.246 85.8327L178.864 86.5628L178.513 86.0281L178.057 84.8936L178.333 84.5426C167.021 75.4446 152.646 70 137 70C132.59 70 128.282 70.4324 124.114 71.2572L125.879 71.2913L126.444 71.8914L125.824 72.0478L124.603 72.1084L124.063 71.2674C93.8066 77.2805 71 103.977 71 136C71 172.451 100.549 202 137 202ZM137 196.132C103.79 196.132 76.8681 169.21 76.8681 136C76.8681 112.107 90.8027 91.4696 110.988 81.7699L110.341 81.1449L110.589 80.1631L111.725 81.4222C119.409 77.8577 127.972 75.8681 137 75.8681C170.21 75.8681 197.132 102.79 197.132 136C197.132 169.21 170.21 196.132 137 196.132Z" fill="#949494"/>
                <path fill-rule="evenodd" clip-rule="evenodd" d="M183.836 164.563C189.01 156.277 192 146.488 192 136C192 120.402 185.387 106.348 174.811 96.4905L175.246 97.8327L174.864 98.5628L174.513 98.0281L174.057 96.8936L174.558 96.2569C164.941 87.4053 152.102 82 138 82C108.177 82 84 106.177 84 136C84 165.823 108.177 190 138 190C155.721 190 171.449 181.464 181.295 168.279C180.92 168.257 180.558 168.213 180.275 168.166C179.608 166.499 178.475 163.366 179.275 164.166C180.075 164.966 181.275 164.833 181.775 164.666V162.666C181.942 162.166 182.375 161.467 182.775 162.666C182.992 163.317 183.415 163.997 183.836 164.563ZM159.5 163.078V163.578H161.5C161.5 162.911 161.3 161.678 160.5 162.078C159.847 162.405 159.62 162.518 159.542 162.696C159.5 162.791 159.5 162.905 159.5 163.078ZM148 168.078L144.5 167.578L144 165.078C145.333 164.745 148.2 163.978 149 163.578C149.8 163.178 151.333 163.078 152 163.078L150.5 165.578L149.5 164.578L148 165.578V168.078ZM143.275 177.166C142.475 176.366 143.608 179.499 144.275 181.166C145.275 181.333 147.275 181.466 147.275 180.666C147.275 179.866 148.275 178.999 148.775 178.666C148.275 178.166 147.175 176.866 146.775 175.666C146.375 174.467 145.942 175.166 145.775 175.666V177.666C145.275 177.833 144.075 177.966 143.275 177.166ZM105 105.5C105 105.776 104.328 106 103.5 106C102.672 106 102 105.776 102 105.5C102 105.224 102.672 105 103.5 105C104.328 105 105 105.224 105 105.5ZM109.995 102.863C110.234 103.003 110.653 102.73 110.932 102.253C111.211 101.776 111.244 101.277 111.006 101.137C110.767 100.998 110.348 101.271 110.069 101.748C109.79 102.224 109.757 102.724 109.995 102.863ZM114.5 90.5L116 90L116.5 91L116 91.5L115 92L114.5 90.5ZM121.922 165.31L121.356 160.687L122.447 159.714C122.915 161.408 123.945 165.043 124.323 166.034C124.7 167.024 125.101 169.009 125.255 169.877L123.703 168.245L123.955 166.814L123.127 164.989L121.922 165.31ZM126.742 179.71L127.203 182.315C127.524 182.229 128.073 181.81 127.696 180.82C127.337 179.878 127.251 179.653 127.125 179.627C127.085 179.619 127.041 179.631 126.983 179.646L126.742 179.71ZM136.453 105.729C136.183 105.801 135.822 105.054 135.646 104.06C135.47 103.066 135.546 102.202 135.816 102.13C136.086 102.058 136.447 102.806 136.623 103.8C136.799 104.793 136.723 105.657 136.453 105.729ZM138.924 111.681C138.922 111.991 139.12 112.482 139.367 112.779C139.613 113.075 139.815 113.064 139.817 112.754C139.819 112.445 139.621 111.953 139.374 111.656C139.128 111.36 138.926 111.371 138.924 111.681ZM144.683 116.098L145.246 117.833L144.864 118.563L144.513 118.028L144.057 116.894L144.683 116.098Z" fill="#949494"/>
                <path d="M158.302 145.441C156.435 146.519 154.454 147.165 152.361 147.379C150.296 147.576 148.331 147.238 146.465 146.364C144.599 145.49 143.053 143.992 141.828 141.869L135.094 130.206C134.879 129.833 134.609 129.568 134.285 129.411C133.973 129.208 133.645 129.111 133.299 129.119C132.954 129.127 132.606 129.232 132.256 129.434C131.906 129.636 131.627 129.893 131.418 130.205C131.238 130.5 131.143 130.842 131.134 131.23C131.137 131.572 131.247 131.93 131.462 132.303L138.763 144.948L129.748 150.153L122.497 137.594C121.288 135.499 120.757 133.434 120.904 131.398C121.08 129.345 121.776 127.451 122.992 125.717C124.207 123.982 125.763 122.567 127.659 121.472C129.556 120.378 131.544 119.746 133.625 119.577C135.706 119.409 137.68 119.761 139.546 120.635C141.412 121.509 142.949 122.993 144.158 125.087L150.892 136.75C151.107 137.123 151.385 137.403 151.726 137.589C152.05 137.746 152.385 137.82 152.73 137.812C153.076 137.804 153.394 137.716 153.686 137.547C154.007 137.362 154.272 137.113 154.481 136.802C154.69 136.49 154.807 136.154 154.833 135.795C154.842 135.407 154.739 135.026 154.524 134.653L147.79 122.99C146.581 120.896 146.065 118.822 146.241 116.769C146.417 114.717 147.099 112.831 148.285 111.113C149.501 109.379 151.042 107.972 152.909 106.894C154.776 105.816 156.75 105.193 158.831 105.025C160.912 104.856 162.886 105.209 164.752 106.082C166.617 106.956 168.155 108.44 169.364 110.535L181.39 131.365L172.42 136.544L160.269 115.499C160.07 115.155 159.817 114.918 159.51 114.79C159.186 114.633 158.851 114.558 158.505 114.566C158.16 114.574 157.827 114.671 157.506 114.856C157.185 115.042 156.92 115.29 156.711 115.602C156.502 115.914 156.385 116.249 156.359 116.609C156.346 116.923 156.438 117.252 156.637 117.596L163.445 129.388C164.671 131.511 165.181 133.608 164.976 135.677C164.8 137.73 164.11 139.601 162.907 141.29C161.704 142.979 160.169 144.363 158.302 145.441Z" fill="white"/>
                <path d="M128.87 160.441C126.146 162.014 123.502 163.057 120.94 163.57C118.36 164.055 115.946 164.058 113.699 163.578C111.434 163.069 109.375 162.113 107.522 160.71C105.669 159.307 104.089 157.475 102.784 155.215C101.479 152.954 100.682 150.671 100.394 148.364C100.106 146.058 100.316 143.811 101.024 141.625C101.745 139.393 102.954 137.304 104.651 135.358C106.36 133.366 108.577 131.584 111.301 130.011L115.909 127.351L120.151 134.697L115.847 137.182C114.514 137.952 113.458 138.832 112.678 139.823C111.897 140.815 111.383 141.865 111.135 142.975C110.87 144.055 110.84 145.174 111.044 146.331C111.278 147.471 111.712 148.592 112.348 149.693C112.984 150.795 113.737 151.731 114.608 152.504C115.508 153.259 116.5 153.807 117.585 154.147C118.653 154.457 119.812 154.523 121.06 154.343C122.309 154.163 123.6 153.688 124.933 152.918L129.748 150.153L133.99 157.499L128.87 160.441Z" fill="white"/>
                <path d="M129.748 150.153L138.765 144.947L141.039 148.887C142.122 150.762 141.48 153.161 139.604 154.243L133.983 157.489L129.748 150.153Z" fill="white"/>
                <path d="M48.8631 161.945L50.2575 165.813L47.6668 166.747C46.9135 167.018 46.4604 167.23 46.3076 167.382C46.1465 167.53 46.1167 167.745 46.2182 168.027C46.333 168.345 46.5192 168.506 46.7767 168.511C47.0343 168.515 47.5397 168.381 48.293 168.109L55.2015 165.619C55.9242 165.358 56.3803 165.145 56.5699 164.98C56.7595 164.815 56.8002 164.582 56.692 164.282C56.5882 163.994 56.4106 163.847 56.1592 163.841C55.9056 163.828 55.3715 163.969 54.557 164.263L52.692 164.935L51.2977 161.067L51.8764 160.859C53.4137 160.304 54.5436 160.022 55.2662 160.01C55.9865 159.993 56.7233 160.271 57.4765 160.843C58.2276 161.41 58.7996 162.238 59.1926 163.328C59.6011 164.462 59.7326 165.469 59.5872 166.352C59.4419 167.235 59.0509 167.926 58.4143 168.426C57.7716 168.927 56.7214 169.441 55.2638 169.966L50.9184 171.533C49.8466 171.919 49.031 172.172 48.4717 172.291C47.9062 172.411 47.3103 172.381 46.684 172.198C46.0554 172.009 45.4843 171.644 44.9708 171.103C44.4489 170.557 44.0367 169.865 43.7342 169.026C43.3235 167.887 43.205 166.867 43.3788 165.967C43.5526 165.067 43.9283 164.382 44.5058 163.91C45.0773 163.441 46.0581 162.956 47.4484 162.455L48.8631 161.945Z" fill="#949494"/>
                <path d="M40.4002 156.655L52.7114 153.762L52.1395 151.328L55.2196 150.604L56.732 157.04L41.3407 160.657L40.4002 156.655Z" fill="#949494"/>
                <path d="M38.1575 142.18L48.652 140.949C49.8418 140.809 50.6837 140.75 51.1777 140.771C51.6653 140.792 52.1869 140.964 52.7425 141.285C53.2916 141.608 53.7355 142.067 54.0741 142.663C54.4056 143.253 54.621 143.972 54.7203 144.819C54.8302 145.757 54.7721 146.603 54.5459 147.357C54.3197 148.111 53.9785 148.695 53.5223 149.109C53.0662 149.523 52.5671 149.795 52.025 149.924C51.4765 150.054 50.3164 150.222 48.5447 150.43L39.2529 151.52L38.774 147.437L50.5488 146.056C51.2342 145.975 51.6697 145.888 51.8554 145.794C52.0338 145.695 52.1097 145.532 52.0832 145.305C52.0529 145.047 51.9301 144.894 51.7148 144.847C51.4923 144.795 50.9899 144.814 50.2075 144.906L38.6364 146.263L38.1575 142.18Z" fill="#949494"/>
                <path d="M37.9282 138.952L38.0029 134.851C38.0266 133.556 38.1453 132.578 38.3592 131.918C38.5732 131.251 38.9932 130.718 39.619 130.319C40.2384 129.921 41.2316 129.734 42.5985 129.758C43.5228 129.775 44.1646 129.934 44.5238 130.233C44.8831 130.526 45.1526 131.101 45.3323 131.957C45.5645 131.011 45.9342 130.373 46.4416 130.043C46.9425 129.714 47.7072 129.559 48.7357 129.577L50.2003 129.604C51.2678 129.624 52.0564 129.762 52.5661 130.018C53.076 130.269 53.4204 130.662 53.5995 131.2C53.7785 131.737 53.8529 132.832 53.8228 134.485L53.7361 139.24L37.9282 138.952ZM40.7078 134.891L44.2228 134.955C44.2195 134.779 44.2187 134.642 44.2205 134.545C44.2279 134.141 44.1349 133.882 43.9417 133.768C43.7419 133.654 43.1733 133.588 42.236 133.571C41.7413 133.562 41.3954 133.601 41.1985 133.689C40.9951 133.776 40.8659 133.894 40.8111 134.043C40.7564 134.185 40.722 134.468 40.7078 134.891ZM46.6833 135L51.1064 135.081C51.0974 134.501 51.013 134.131 50.8531 133.972C50.6934 133.806 50.2945 133.718 49.6566 133.706L48.1823 133.679C47.5053 133.667 47.0939 133.731 46.9481 133.872C46.8023 134.012 46.714 134.388 46.6833 135Z" fill="#949494"/>
                <path d="M39.1447 119.567L39.8073 116.563C40.235 114.624 40.6129 113.334 40.9409 112.693C41.2704 112.045 41.6778 111.588 42.1632 111.322C42.6486 111.056 43.1523 110.934 43.6742 110.955C44.1897 110.976 45.1786 111.147 46.6408 111.47L52.048 112.662C53.4339 112.968 54.3474 113.24 54.7884 113.477C55.2245 113.706 55.5403 114.013 55.7358 114.396C55.9249 114.778 56.021 115.219 56.0239 115.719C56.0204 116.219 55.9128 116.948 55.7011 117.908L54.5842 122.972L39.1447 119.567ZM42.6718 116.134L52.8281 118.375C52.9557 117.796 52.9198 117.415 52.7204 117.231C52.5146 117.045 51.8967 116.839 50.8668 116.612L44.8684 115.289C44.1691 115.135 43.716 115.058 43.5091 115.059C43.3022 115.06 43.1367 115.13 43.0126 115.27C42.8822 115.408 42.7686 115.696 42.6718 116.134Z" fill="#949494"/>
                <path d="M42.3604 106.298L44.6523 99.8367L47.6343 100.894L46.7169 103.481L49.5424 104.483L50.4011 102.062L53.2358 103.068L52.3772 105.489L55.6537 106.651L56.6625 103.807L59.6445 104.865L57.2613 111.583L42.3604 106.298Z" fill="#949494"/>
                <path d="M54.8829 80.2094L68.4351 88.3526L66.5841 91.4331L57.4349 85.9355L65.8447 92.6635L64.532 94.8483L54.8124 90.774L63.7523 96.1458L61.9014 99.2262L48.3492 91.083L51.0904 86.5209C51.9857 86.8766 53.031 87.311 54.2265 87.8243L57.9669 89.411L52.1215 84.8049L54.8829 80.2094Z" fill="#949494"/>
                <path fill-rule="evenodd" clip-rule="evenodd" d="M61.9515 71.274L74.7011 78.9889C74.5433 79.352 74.4001 79.7114 74.3227 79.9758C74.2204 80.3248 73.9072 81.1685 73.5824 82.0174L72.9419 82.7904L70.6229 81.1351L69.682 82.2706L71.7145 84.2717L68.9978 87.5503L58.157 75.8534L61.9515 71.274ZM74.7963 79.68L75.1892 79.2842L75.6274 79.5494L74.5424 80.8588L74.5293 80.8555L74.7963 79.68ZM68.39 79.4371C66.8784 78.4552 65.0436 77.2054 62.8854 75.6877C64.9456 77.9359 66.4814 79.5466 67.4927 80.5199L68.39 79.4371Z" fill="#949494"/>
                <path d="M65.6314 67.1715L67.7645 65.1918C69.1865 63.8721 70.199 63.0346 70.8019 62.6793C71.4096 62.3196 72.0813 62.2203 72.817 62.3813C73.553 62.5331 74.3794 63.103 75.2962 64.0908C76.1332 64.9927 76.5835 65.7028 76.6471 66.2211C76.7107 66.7394 76.442 67.3352 75.841 68.0084C76.5748 67.6027 77.1595 67.4288 77.595 67.4865C78.0304 67.5442 78.3695 67.6559 78.6121 67.8215C78.855 67.978 79.4105 68.5239 80.2785 69.4592L83.1151 72.5157L80.3164 75.1131L76.7424 71.2622C76.1666 70.6418 75.76 70.3042 75.5225 70.2492C75.2898 70.1899 74.9658 70.3528 74.5507 70.7381L79.4002 75.9634L76.3867 78.7602L65.6314 67.1715ZM70.4851 66.3575L72.8766 68.9343C73.2154 68.6199 73.4095 68.3553 73.459 68.1407C73.5088 67.9168 73.2968 67.5496 72.8229 67.039L72.2317 66.4019C71.8907 66.0345 71.6002 65.8555 71.3603 65.865C71.1252 65.87 70.8334 66.0342 70.4851 66.3575Z" fill="#949494"/>
                <path d="M83.0171 53.0705L85.2163 60.2582L92.3276 65.8509L88.8588 68.3032L83.5908 63.7275L87.5032 69.2615L84.1461 71.6349L75.0191 58.7248L78.3762 56.3515L81.9222 61.3672L79.8673 55.2973L83.0171 53.0705Z" fill="#949494"/>
                <path d="M85.3361 51.7068L91.3513 48.4183L92.8691 51.1945L90.4613 52.5109L91.8994 55.1415L94.153 53.9095L95.5958 56.5486L93.3422 57.7806L95.0099 60.8311L97.6577 59.3836L99.1754 62.1599L92.9203 65.5795L85.3361 51.7068Z" fill="#949494"/>
                <path d="M102.503 43.595L103.69 46.5279L101.427 47.4439L106.171 59.1666L102.36 60.7091L97.6158 48.9863L95.3617 49.8986L94.1747 46.9657L102.503 43.595Z" fill="#949494"/>
                <path d="M109.272 41.5043L113.825 56.645L109.888 57.8291L105.335 42.6884L109.272 41.5043Z" fill="#949494"/>
                <path d="M121.129 38.9036L124.156 54.4217L120.619 55.1116L117.144 48.4665L118.52 55.521L115.146 56.1791L112.119 40.661L115.493 40.0029L119.118 46.5492L117.755 39.5617L121.129 38.9036Z" fill="#949494"/>
                <path d="M134.299 43.7004L130.194 43.9325L130.113 42.4993C130.062 41.5957 129.991 41.0325 129.9 40.8094C129.809 40.5863 129.617 40.483 129.325 40.4995C129.071 40.5139 128.905 40.6211 128.825 40.8213C128.745 41.0214 128.727 41.5245 128.773 42.3305L129.201 49.9063C129.241 50.6148 129.313 51.0802 129.417 51.3026C129.521 51.5184 129.709 51.6186 129.982 51.6032C130.281 51.5863 130.475 51.4481 130.565 51.1888C130.661 50.929 130.689 50.4319 130.647 49.6974L130.541 47.8254L129.712 47.8722L129.577 45.4737L134.384 45.2019L134.863 53.6747L132.279 53.8208L131.835 52.7113C131.583 53.2146 131.249 53.6019 130.834 53.8731C130.425 54.1375 129.932 54.2861 129.353 54.3188C128.664 54.3578 128.008 54.2286 127.385 53.9313C126.768 53.6271 126.289 53.2368 125.949 52.7605C125.609 52.2841 125.385 51.7784 125.276 51.2433C125.168 50.7017 125.082 49.8881 125.021 48.8026L124.756 44.1129C124.671 42.6049 124.69 41.505 124.814 40.8133C124.938 40.1216 125.367 39.4713 126.102 38.8625C126.843 38.2467 127.825 37.9043 129.047 37.8352C130.249 37.7672 131.261 37.9578 132.082 38.4069C132.903 38.8561 133.453 39.4151 133.732 40.084C134.011 40.7464 134.187 41.7244 134.26 43.0179L134.299 43.7004Z" fill="#949494"/>
                <path fill-rule="evenodd" clip-rule="evenodd" d="M144.049 38.2203L147.092 38.6725C149.056 38.9644 150.369 39.2517 151.031 39.5344C151.7 39.8181 152.184 40.1928 152.483 40.6585C152.783 41.1242 152.94 41.6182 152.954 42.1403C152.97 42.656 152.868 43.6544 152.647 45.1355L151.834 50.6125C151.625 52.0163 151.418 52.9465 151.211 53.4029C151.013 53.8539 150.729 54.1902 150.361 54.4118C149.993 54.6271 149.559 54.7535 149.06 54.7912C148.562 54.8225 147.827 54.7658 146.854 54.6213L141.725 53.8591L144.049 38.2203ZM147.718 41.5003L146.908 46.9522C146.725 47.0242 146.49 47.2313 146.38 47.4205C146.267 47.6133 146.325 47.7144 146.51 47.6464C146.612 47.6088 146.732 47.5272 146.837 47.4292L146.189 51.7877C146.775 51.8748 147.153 51.8125 147.323 51.6008C147.493 51.3826 147.656 50.7519 147.811 49.7087L148.714 43.6328C148.82 42.9245 148.865 42.4671 148.849 42.2608C148.834 42.0545 148.752 41.8942 148.605 41.7802C148.458 41.6596 148.162 41.5664 147.718 41.5003ZM150.606 43.5671C150.06 43.8789 149.709 44.2312 149.821 44.354C149.934 44.4767 150.467 44.3235 151.013 44.0116C151.558 43.6998 151.91 43.3476 151.797 43.2248C151.685 43.1021 151.152 43.2553 150.606 43.5671ZM144.89 51.5702L145.776 50.8945L145.142 50.7493L144.585 51.2369L144.357 51.5362L144.89 51.5702Z" fill="#949494"/>
                <path d="M157.375 40.4616L163.986 42.2778L163.147 45.3288L160.501 44.6018L159.707 47.4927L162.184 48.1732L161.387 51.0735L158.91 50.3931L157.989 53.7454L160.899 54.5449L160.061 57.5959L153.186 55.7072L157.375 40.4616Z" fill="#949494"/>
                <path d="M184.26 51.0395L177.127 65.1492L173.919 63.5277L178.735 54.0021L172.638 62.88L170.364 61.7299L173.719 51.7393L169.013 61.047L165.806 59.4255L172.939 45.3158L177.689 47.7172C177.4 48.6359 177.043 49.7102 176.618 50.9399L175.308 54.786L179.476 48.6204L184.26 51.0395Z" fill="#949494"/>
                <path d="M193.722 57.4759L186.426 71.6984L183.004 69.2468L184.493 66.8174L183.294 65.9585L181.441 68.1263L177.98 65.6463L188.887 54.0118L193.722 57.4759ZM186.03 64.4709C186.904 62.8943 188.022 60.9763 189.384 58.717C187.286 60.9298 185.787 62.5747 184.887 63.6519L186.03 64.4709Z" fill="#949494"/>
                <path d="M198.023 60.7296L200.263 62.8381C201.708 64.1991 202.622 65.1848 203.005 65.795C203.392 66.4096 203.575 66.9936 203.555 67.5469C203.535 68.1002 203.382 68.5953 203.096 69.0323C202.814 69.4645 202.16 70.2258 201.134 71.3161L197.338 75.3479C196.365 76.3813 195.664 77.0266 195.234 77.2837C194.814 77.5405 194.389 77.6546 193.96 77.6261C193.535 77.5929 193.107 77.4493 192.676 77.1952C192.249 76.9363 191.677 76.47 190.961 75.7962L187.186 72.2418L198.023 60.7296ZM199.162 65.5173L192.033 73.0902C192.465 73.4963 192.811 73.6608 193.071 73.5839C193.335 73.5022 193.829 73.0774 194.552 72.3094L198.762 67.8368C199.253 67.3153 199.551 66.9655 199.657 66.7873C199.762 66.6091 199.786 66.4311 199.73 66.2531C199.679 66.0705 199.489 65.8252 199.162 65.5173Z" fill="#949494"/>
                <path fill-rule="evenodd" clip-rule="evenodd" d="M209.61 72.4781L207.78 70.2154L195.487 80.1581L198.073 83.3547L203.26 79.1597L203.076 78.6175L203.279 78.1237L203.49 78.4351L203.735 79.0261C204.003 79.391 204.103 79.6737 204.037 79.8744C203.967 80.1077 203.602 80.4904 202.944 81.0226L198.859 84.3266L201.26 87.2955L201.621 87.0039L201.207 86.9775L201.434 86.6781L201.991 86.1906L202.486 86.3039L204.502 84.6731C205.495 83.8707 206.077 83.3536 206.25 83.1219C206.431 82.8911 206.566 82.5604 206.653 82.1299C206.74 81.6993 206.606 81.1042 206.251 80.3445C206.882 80.9899 207.458 81.2984 207.98 81.2702C208.501 81.242 209.24 80.841 210.197 80.0672C211.245 79.2197 211.87 78.4339 212.071 77.7099C212.282 76.9869 212.228 76.31 211.911 75.6793C211.597 75.0536 210.831 73.9866 209.61 72.4781ZM205.529 77.324L208.263 75.1132C208.561 75.4827 208.705 75.7849 208.694 76.0198C208.688 76.2598 208.489 76.5375 208.1 76.8527L207.424 77.3993C206.882 77.8374 206.501 78.0239 206.281 77.959C206.071 77.8951 205.82 77.6834 205.529 77.324ZM199.03 78.3268L199.347 78.3031L199.218 78.1699L199.009 78.1998L198.908 78.236L199.03 78.3268Z" fill="#949494"/>
                <path d="M217.684 83.5737L204.434 92.2004L202.191 88.755L215.44 80.1283L217.684 83.5737Z" fill="#949494"/>
                <path d="M219.277 85.9376L220.679 88.6755C221.584 90.4429 222.114 91.6781 222.27 92.3812C222.428 93.0902 222.405 93.7018 222.2 94.2163C221.995 94.7307 221.685 95.1457 221.269 95.4613C220.858 95.7739 219.987 96.2715 218.654 96.9541L213.726 99.4782C212.462 100.125 211.585 100.498 211.094 100.596C210.612 100.696 210.173 100.661 209.778 100.49C209.389 100.317 209.034 100.038 208.713 99.6534C208.398 99.2663 208.016 98.6353 207.568 97.7603L205.204 93.1449L219.277 85.9376ZM218.743 90.83L209.486 95.571C209.756 96.0984 210.027 96.3694 210.298 96.3843C210.574 96.3962 211.182 96.1617 212.121 95.6809L217.588 92.8808C218.225 92.5543 218.624 92.3248 218.782 92.1923C218.941 92.0597 219.024 91.9002 219.031 91.7138C219.044 91.5244 218.948 91.2298 218.743 90.83Z" fill="#949494"/>
                <path d="M223.505 112.302L222.138 108.425L224.736 107.509C225.491 107.243 225.946 107.035 226.1 106.884C226.262 106.737 226.293 106.522 226.194 106.24C226.081 105.921 225.896 105.758 225.639 105.752C225.381 105.746 224.875 105.876 224.12 106.142L217.193 108.583C216.469 108.838 216.011 109.048 215.82 109.211C215.629 109.375 215.587 109.608 215.693 109.908C215.795 110.197 215.971 110.345 216.223 110.354C216.476 110.368 217.011 110.231 217.828 109.943L219.698 109.285L221.064 113.162L220.484 113.367C218.942 113.91 217.81 114.184 217.088 114.19C216.367 114.203 215.632 113.92 214.883 113.341C214.137 112.769 213.571 111.937 213.186 110.844C212.785 109.708 212.661 108.699 212.813 107.817C212.965 106.935 213.361 106.247 214.001 105.752C214.647 105.255 215.701 104.749 217.163 104.234L221.519 102.7C222.594 102.321 223.411 102.074 223.971 101.96C224.538 101.843 225.133 101.878 225.758 102.065C226.386 102.259 226.954 102.628 227.464 103.173C227.981 103.722 228.389 104.417 228.685 105.259C229.087 106.401 229.198 107.421 229.018 108.32C228.838 109.219 228.457 109.902 227.876 110.369C227.301 110.833 226.317 111.311 224.923 111.803L223.505 112.302Z" fill="#949494"/>
                <path d="M231.927 117.655L219.596 120.458L220.15 122.896L217.064 123.597L215.599 117.15L231.016 113.646L231.927 117.655Z" fill="#949494"/>
                <path d="M234.067 132.145L223.564 133.299C222.374 133.43 221.531 133.483 221.037 133.459C220.55 133.434 220.03 133.259 219.476 132.933C218.93 132.607 218.489 132.144 218.155 131.546C217.828 130.953 217.617 130.232 217.524 129.385C217.421 128.446 217.485 127.601 217.717 126.848C217.949 126.096 218.294 125.514 218.753 125.104C219.213 124.693 219.714 124.425 220.257 124.3C220.806 124.174 221.967 124.014 223.741 123.819L233.04 122.797L233.489 126.883L221.705 128.179C221.019 128.254 220.583 128.338 220.396 128.43C220.217 128.529 220.14 128.691 220.165 128.918C220.193 129.177 220.315 129.33 220.53 129.379C220.752 129.433 221.255 129.417 222.038 129.331L233.618 128.058L234.067 132.145Z" fill="#949494"/>
                <path d="M234.272 135.375L234.167 139.475C234.134 140.771 234.008 141.747 233.79 142.406C233.571 143.071 233.147 143.601 232.518 143.995C231.896 144.39 230.901 144.57 229.535 144.535C228.61 144.511 227.97 144.348 227.613 144.046C227.256 143.75 226.99 143.174 226.817 142.316C226.578 143.261 226.203 143.896 225.694 144.222C225.19 144.548 224.425 144.697 223.396 144.671L221.932 144.634C220.865 144.606 220.077 144.463 219.569 144.202C219.061 143.948 218.72 143.552 218.544 143.014C218.369 142.475 218.303 141.379 218.345 139.726L218.466 134.972L234.272 135.375ZM231.463 139.416L227.948 139.326C227.95 139.502 227.95 139.639 227.948 139.737C227.937 140.14 228.028 140.4 228.221 140.515C228.42 140.631 228.988 140.701 229.925 140.725C230.42 140.738 230.766 140.701 230.963 140.615C231.167 140.529 231.297 140.412 231.353 140.263C231.409 140.121 231.445 139.839 231.463 139.416ZM225.488 139.264L221.066 139.151C221.07 139.731 221.152 140.101 221.311 140.261C221.469 140.428 221.868 140.519 222.505 140.536L223.98 140.573C224.656 140.591 225.068 140.529 225.215 140.39C225.362 140.25 225.453 139.875 225.488 139.264Z" fill="#949494"/>
                <path d="M232.912 154.751L232.228 157.75C231.786 159.686 231.399 160.973 231.066 161.611C230.732 162.256 230.321 162.71 229.834 162.973C229.347 163.236 228.842 163.354 228.32 163.329C227.805 163.305 226.817 163.126 225.358 162.793L219.959 161.561C218.576 161.245 217.664 160.967 217.225 160.726C216.79 160.494 216.477 160.185 216.284 159.801C216.098 159.418 216.005 158.976 216.006 158.475C216.013 157.976 216.126 157.247 216.344 156.289L217.498 151.233L232.912 154.751ZM229.36 158.157L219.221 155.843C219.089 156.421 219.122 156.802 219.32 156.988C219.525 157.175 220.141 157.385 221.169 157.62L227.158 158.987C227.856 159.146 228.308 159.226 228.515 159.226C228.722 159.227 228.888 159.158 229.013 159.019C229.145 158.882 229.26 158.595 229.36 158.157Z" fill="#949494"/>
                <path d="M229.602 167.995L227.263 174.439L224.289 173.36L225.225 170.78L222.407 169.757L221.531 172.171L218.703 171.145L219.579 168.731L216.311 167.545L215.282 170.381L212.308 169.302L214.74 162.601L229.602 167.995Z" fill="#949494"/>
                <path d="M216.889 193.993L203.396 185.751L205.269 182.684L214.378 188.248L206.018 181.459L207.346 179.284L217.036 183.429L208.135 177.992L210.009 174.925L223.501 183.167L220.727 187.709C219.834 187.347 218.792 186.905 217.6 186.383L213.872 184.769L219.683 189.417L216.889 193.993Z" fill="#949494"/>
                <path d="M209.757 202.862L196.142 194.487L198.851 191.266L201.158 192.938L202.107 191.81L200.089 189.794L202.829 186.535L213.585 198.31L209.757 202.862ZM203.378 194.652C204.882 195.645 206.708 196.908 208.855 198.442C206.812 196.179 205.287 194.557 204.283 193.576L203.378 194.652Z" fill="#949494"/>
                <path d="M206.047 206.951L203.899 208.915C202.468 210.224 201.449 211.054 200.844 211.405C200.233 211.761 199.561 211.855 198.826 211.689C198.091 211.531 197.269 210.956 196.36 209.961C195.529 209.053 195.084 208.34 195.024 207.821C194.964 207.302 195.238 206.708 195.843 206.04C195.107 206.44 194.521 206.61 194.086 206.549C193.651 206.488 193.312 206.374 193.071 206.206C192.829 206.048 192.278 205.498 191.417 204.557L188.602 201.48L191.42 198.903L194.966 202.779C195.537 203.404 195.941 203.745 196.178 203.801C196.41 203.862 196.736 203.702 197.154 203.319L192.342 198.059L195.376 195.284L206.047 206.951ZM201.187 207.73L198.814 205.135C198.473 205.447 198.277 205.71 198.226 205.925C198.175 206.148 198.384 206.517 198.854 207.031L199.441 207.672C199.779 208.042 200.068 208.223 200.308 208.216C200.544 208.212 200.836 208.05 201.187 207.73Z" fill="#949494"/>
                <path d="M188.559 220.925L186.412 213.721L179.342 208.077L182.829 205.65L188.063 210.264L184.191 204.701L187.565 202.353L196.598 215.329L193.224 217.678L189.715 212.636L191.725 218.721L188.559 220.925Z" fill="#949494"/>
                <path d="M186.229 222.272L180.19 225.517L178.693 222.729L181.11 221.431L179.691 218.79L177.429 220.005L176.005 217.356L178.268 216.14L176.622 213.077L173.964 214.506L172.467 211.718L178.746 208.344L186.229 222.272Z" fill="#949494"/>
                <path d="M169.006 230.257L167.84 227.316L170.11 226.416L165.451 214.659L169.273 213.145L173.932 224.902L176.192 224.006L177.358 226.947L169.006 230.257Z" fill="#949494"/>
                <path d="M162.221 232.3L157.778 217.127L161.723 215.971L166.166 231.145L162.221 232.3Z" fill="#949494"/>
                <path d="M150.346 234.815L147.432 219.275L150.974 218.611L154.4 225.281L153.076 218.217L156.454 217.583L159.368 233.123L155.99 233.756L152.412 227.184L153.724 234.181L150.346 234.815Z" fill="#949494"/>
                <path d="M137.211 229.92L141.317 229.718L141.388 231.152C141.433 232.055 141.499 232.619 141.589 232.843C141.678 233.067 141.869 233.171 142.161 233.157C142.415 233.145 142.583 233.039 142.664 232.839C142.745 232.639 142.766 232.136 142.727 231.33L142.353 223.751C142.318 223.043 142.25 222.577 142.148 222.354C142.046 222.137 141.858 222.035 141.585 222.049C141.286 222.064 141.091 222.2 140.999 222.459C140.901 222.718 140.87 223.215 140.906 223.95L140.998 225.823L141.828 225.782L141.946 228.181L137.137 228.418L136.72 219.942L139.304 219.815L139.741 220.927C139.996 220.426 140.332 220.041 140.749 219.773C141.16 219.511 141.655 219.366 142.234 219.338C142.923 219.304 143.578 219.438 144.199 219.74C144.814 220.048 145.29 220.442 145.626 220.921C145.963 221.4 146.183 221.907 146.288 222.443C146.393 222.985 146.472 223.8 146.525 224.885L146.757 229.577C146.831 231.086 146.804 232.185 146.675 232.876C146.546 233.567 146.111 234.214 145.372 234.818C144.626 235.428 143.642 235.763 142.42 235.823C141.217 235.883 140.207 235.685 139.389 235.23C138.571 234.774 138.025 234.211 137.751 233.54C137.477 232.876 137.308 231.897 137.245 230.603L137.211 229.92Z" fill="#949494"/>
                <path d="M114.11 232.992L107.513 231.128L108.373 228.083L111.014 228.829L111.83 225.944L109.358 225.246L110.176 222.351L112.647 223.05L113.593 219.704L110.689 218.883L111.549 215.839L118.41 217.777L114.11 232.992Z" fill="#949494"/>
                <path fill-rule="evenodd" clip-rule="evenodd" d="M124.388 234.847L127.427 235.321L129.865 219.699L127.86 219.387C127.677 219.521 127.482 219.651 127.276 219.775C125.623 220.777 123.935 221.015 123.506 220.307C123.28 219.935 123.447 219.376 123.895 218.783C123.331 218.718 122.878 218.695 122.537 218.714C122.037 218.748 121.603 218.871 121.234 219.084C120.863 219.303 120.577 219.637 120.375 220.086C120.166 220.541 119.952 221.47 119.733 222.872L118.879 228.343C118.648 229.823 118.539 230.82 118.55 231.336C118.561 231.858 118.715 232.353 119.011 232.821C119.307 233.289 119.788 233.667 120.454 233.956C121.115 234.243 122.426 234.54 124.388 234.847ZM125.386 221.738L123.782 232.014C123.338 231.945 123.043 231.849 122.898 231.728C122.751 231.613 122.67 231.452 122.657 231.245C122.643 231.039 122.691 230.582 122.801 229.874L123.748 223.805C123.911 222.763 124.079 222.134 124.251 221.917C124.422 221.706 124.8 221.647 125.386 221.738Z" fill="#949494"/>
                <path d="M87.3043 222.218L94.5406 208.161L97.7358 209.806L92.8506 219.296L99.0122 210.463L101.278 211.629L97.8507 221.595L102.624 212.322L105.819 213.967L98.5833 228.024L93.8512 225.588C94.1473 224.672 94.5122 223.6 94.9459 222.373L96.2837 218.537L92.0712 224.672L87.3043 222.218Z" fill="#949494"/>
                <path d="M77.8895 215.714L85.2888 201.545L88.6922 204.022L87.186 206.44L88.3784 207.308L90.2478 205.154L93.6906 207.659L82.6984 219.214L77.8895 215.714ZM85.6317 208.775C84.7468 210.346 83.6148 212.256 82.2357 214.505C84.35 212.307 85.861 210.673 86.7688 209.603L85.6317 208.775Z" fill="#949494"/>
                <path d="M73.6123 212.429L71.3879 210.304C69.9519 208.933 69.0451 207.94 68.6673 207.327C68.2847 206.71 68.1055 206.125 68.1297 205.571C68.1538 205.018 68.3106 204.524 68.5999 204.089C68.8848 203.659 69.5443 202.903 70.5786 201.82L74.4031 197.816C75.3834 196.79 76.0894 196.149 76.521 195.895C76.9435 195.642 77.3692 195.531 77.7981 195.562C78.2226 195.599 78.6496 195.745 79.0792 196.003C79.5042 196.265 80.0722 196.735 80.783 197.414L84.5329 200.996L73.6123 212.429ZM72.5077 207.633L79.6914 200.112C79.263 199.703 78.9184 199.536 78.6577 199.611C78.3924 199.691 77.8955 200.112 77.1671 200.875L72.9243 205.316C72.4297 205.834 72.1291 206.182 72.0227 206.359C71.9162 206.537 71.8904 206.715 71.9451 206.893C71.9953 207.076 72.1829 207.323 72.5077 207.633Z" fill="#949494"/>
                <path d="M63.9282 202.871L62.1146 200.595C60.9055 199.077 60.1466 198.005 59.8377 197.377C59.5247 196.744 59.4762 196.066 59.6921 195.345C59.8989 194.622 60.5292 193.841 61.5832 193.001C62.5455 192.235 63.2875 191.839 63.8091 191.815C64.3308 191.79 64.9047 192.103 65.5307 192.753C65.1814 191.991 65.0519 191.395 65.1422 190.965C65.2325 190.535 65.3694 190.205 65.5529 189.976C65.7272 189.745 66.3133 189.232 67.3113 188.437L70.5724 185.838L72.952 188.825L68.8431 192.099C68.1812 192.626 67.8139 193.006 67.7413 193.239C67.6646 193.467 67.8027 193.802 68.1557 194.245L73.731 189.802L76.2931 193.018L63.9282 202.871ZM63.4816 197.969L66.2311 195.779C65.943 195.417 65.6938 195.204 65.4834 195.138C65.264 195.072 64.8818 195.255 64.337 195.689L63.6573 196.231C63.2652 196.543 63.0649 196.82 63.0563 197.06C63.0436 197.294 63.1854 197.598 63.4816 197.969Z" fill="#949494"/>
                <path d="M54.1188 189.442L67.4309 180.912L69.6491 184.374L56.337 192.904L54.1188 189.442Z" fill="#949494"/>
                <path d="M52.5428 187.068L51.1604 184.32C50.2681 182.546 49.7469 181.307 49.5967 180.603C49.4436 179.893 49.4713 179.281 49.6797 178.768C49.8881 178.255 50.2015 177.843 50.62 177.53C51.0327 177.22 51.9079 176.729 53.2456 176.056L58.1922 173.568C59.4601 172.93 60.3399 172.564 60.8318 172.47C61.3149 172.373 61.7531 172.411 62.1466 172.585C62.5343 172.761 62.8873 173.043 63.2055 173.429C63.518 173.819 63.8951 174.453 64.3369 175.331L66.6671 179.963L52.5428 187.068ZM53.1119 182.18L62.403 177.506C62.1368 176.977 61.8683 176.704 61.5975 176.687C61.3208 176.673 60.7114 176.903 59.7692 177.377L54.2818 180.137C53.642 180.459 53.2422 180.686 53.0824 180.817C52.9226 180.948 52.8385 181.107 52.8302 181.294C52.8161 181.483 52.91 181.778 53.1119 182.18Z" fill="#949494"/>
                </svg>
                