<svg xmlns="http://www.w3.org/2000/svg" width="155" height="72" viewBox="0 0 155 72" fill="none">
  <path d="M102.622 71.3471C98.4453 71.3471 94.4966 70.515 90.7763 68.8509C87.1213 67.1868 84.1516 64.7226 81.8673 61.4584C79.5829 58.1941 78.4407 54.1939 78.4407 49.4575V23.4397C78.4407 22.6076 78.2449 21.9035 77.8533 21.3275C77.527 20.6875 77.0701 20.2074 76.4827 19.8874C75.8953 19.5674 75.2099 19.4074 74.4267 19.4074C73.6435 19.4074 72.9256 19.5674 72.2729 19.8874C71.6855 20.2074 71.196 20.6875 70.8044 21.3275C70.478 21.9035 70.3148 22.6076 70.3148 23.4397V51.649H50.1471V23.6317C50.1471 18.9593 51.2566 14.9911 53.4757 11.7268C55.7601 8.46259 58.7624 5.96641 62.4827 4.23828C66.203 2.51016 70.1843 1.6461 74.4267 1.6461C78.6691 1.6461 82.6179 2.51016 86.2729 4.23828C89.9279 5.96641 92.8976 8.46259 95.1819 11.7268C97.4663 14.9911 98.6085 18.9593 98.6085 23.6317V49.6495C98.6085 50.4816 98.8043 51.2176 99.1959 51.8577C99.5875 52.4337 100.077 52.8818 100.664 53.2018C101.252 53.5218 101.872 53.6818 102.525 53.6818C103.243 53.6818 103.928 53.5218 104.581 53.2018C105.233 52.8818 105.755 52.4337 106.147 51.8577C106.539 51.2176 106.734 50.4816 106.734 49.6495V23.6317C106.734 18.9593 107.877 14.9911 110.161 11.7268C112.445 8.46259 115.415 5.96641 119.07 4.23828C122.79 2.51016 126.739 1.6461 130.916 1.6461C135.093 1.6461 139.009 2.51016 142.664 4.23828C146.319 5.96641 149.289 8.46259 151.573 11.7268C153.858 14.9911 155 18.9593 155 23.6317V70.099H134.93V23.1516C134.93 22.3836 134.734 21.7435 134.343 21.2315C133.951 20.6555 133.462 20.2074 132.874 19.8874C132.287 19.5674 131.634 19.4074 130.916 19.4074C130.198 19.4074 129.513 19.5674 128.86 19.8874C128.208 20.2074 127.685 20.6555 127.294 21.2315C126.967 21.7435 126.804 22.3836 126.804 23.1516V49.4575C126.804 54.1939 125.629 58.1941 123.28 61.4584C120.995 64.7226 118.026 67.1868 114.371 68.8509C110.716 70.515 106.8 71.3471 102.622 71.3471Z" fill="url(#paint0_linear_179_943)"/>
  <path d="M38.7075 68.0136C32.6128 68.0136 27.1665 67.2054 22.3686 65.5892C17.5707 63.9083 13.5184 61.5809 10.2118 58.607C6.9051 55.5684 4.37647 51.9803 2.62588 47.8427C0.875294 43.7051 0 39.1149 0 34.0722C0 29.0295 0.875294 24.4393 2.62588 20.3017C4.37647 16.1641 6.9051 12.6083 10.2118 9.63444C13.5833 6.59588 17.6356 4.26847 22.3686 2.65222C27.1665 0.971313 32.6128 0.130859 38.7075 0.130859H49.0165V16.5197H39.3882C36.4058 16.5197 33.7799 16.9722 31.5106 17.8773C29.2413 18.7824 27.361 20.0431 25.8698 21.6594C24.3786 23.211 23.2439 25.0535 22.4659 27.187C21.7527 29.3204 21.3961 31.6155 21.3961 34.0722C21.3961 36.5289 21.7527 38.824 22.4659 40.9575C23.2439 43.0909 24.3786 44.9658 25.8698 46.582C27.361 48.1336 29.2413 49.362 31.5106 50.2671C33.7799 51.1722 36.4058 51.6247 39.3882 51.6247L50.1471 51.649V68.0378L38.7075 68.0136Z" fill="url(#paint1_linear_179_943)"/>
  <path d="M50.1471 51.649H70.3199V60.4374C70.3199 64.6216 66.9181 68.0136 62.7218 68.0136H50.1471V51.649Z" fill="url(#paint2_linear_179_943)"/>
  <defs>
    <linearGradient id="paint0_linear_179_943" x1="77.5" y1="0.130859" x2="77.5" y2="71.3471" gradientUnits="userSpaceOnUse">
      <stop stop-color="#9747FF"/>
      <stop offset="1" stop-color="#FECE63"/>
    </linearGradient>
    <linearGradient id="paint1_linear_179_943" x1="77.5" y1="0.130859" x2="77.5" y2="71.3471" gradientUnits="userSpaceOnUse">
      <stop stop-color="#9747FF"/>
      <stop offset="1" stop-color="#FECE63"/>
    </linearGradient>
    <linearGradient id="paint2_linear_179_943" x1="77.5" y1="0.130859" x2="77.5" y2="71.3471" gradientUnits="userSpaceOnUse">
      <stop stop-color="#9747FF"/>
      <stop offset="1" stop-color="#FECE63"/>
    </linearGradient>
  </defs>
</svg>