<svg width="15" height="16" viewBox="0 0 15 16" fill="none" xmlns="http://www.w3.org/2000/svg">
<path d="M7.5 9.5C11.64 9.5 15 11.07 15 13V15.5H0V13C0 11.07 3.36 9.5 7.5 9.5ZM14 13C14 11.62 11.09 10.5 7.5 10.5C3.91 10.5 1 11.62 1 13V14.5H14V13ZM7.5 0.5C8.42826 0.5 9.3185 0.868749 9.97487 1.52513C10.6313 2.1815 11 3.07174 11 4C11 4.92826 10.6313 5.8185 9.97487 6.47487C9.3185 7.13125 8.42826 7.5 7.5 7.5C6.57174 7.5 5.6815 7.13125 5.02513 6.47487C4.36875 5.8185 4 4.92826 4 4C4 3.07174 4.36875 2.1815 5.02513 1.52513C5.6815 0.868749 6.57174 0.5 7.5 0.5ZM7.5 1.5C6.83696 1.5 6.20107 1.76339 5.73223 2.23223C5.26339 2.70107 5 3.33696 5 4C5 4.66304 5.26339 5.29893 5.73223 5.76777C6.20107 6.23661 6.83696 6.5 7.5 6.5C8.16304 6.5 8.79893 6.23661 9.26777 5.76777C9.73661 5.29893 10 4.66304 10 4C10 3.33696 9.73661 2.70107 9.26777 2.23223C8.79893 1.76339 8.16304 1.5 7.5 1.5Z" fill="black"/>
</svg>
