<svg width="33" height="32" viewBox="0 0 33 32" fill="none" xmlns="http://www.w3.org/2000/svg">
<path d="M32.5 16C32.5 24.546 25.3512 31.5 16.5 31.5C7.64883 31.5 0.5 24.546 0.5 16C0.5 7.45398 7.64883 0.5 16.5 0.5C25.3512 0.5 32.5 7.45398 32.5 16Z" stroke="black"/>
<path d="M7.30234 14.7804C12.4047 12.5579 15.8062 11.0925 17.507 10.3846C22.3687 8.36309 23.3777 8.012 24.0367 8.0001C24.1816 7.99778 24.5043 8.0336 24.7148 8.20381C24.8898 8.34737 24.9391 8.54151 24.9637 8.67782C24.9855 8.81399 25.0156 9.12434 24.991 9.36661C24.7285 12.1338 23.5883 18.8489 23.0086 21.9483C22.7652 23.2597 22.2812 23.6994 21.8137 23.7423C20.7965 23.8358 20.0254 23.0707 19.041 22.4257C17.5016 21.4159 16.632 20.7875 15.1363 19.8024C13.4082 18.6638 14.5293 18.0379 15.5137 17.0152C15.7707 16.7475 20.2496 12.6747 20.3344 12.3052C20.3453 12.259 20.3562 12.0868 20.2523 11.996C20.1512 11.9049 20.0008 11.9361 19.8914 11.9607C19.7355 11.9957 17.2773 13.6221 12.5086 16.8397C11.8113 17.3193 11.1797 17.5531 10.6109 17.5407C9.9875 17.5273 8.78437 17.1875 7.89023 16.8971C6.79648 16.5408 5.92421 16.3524 6.00078 15.7473C6.03906 15.4323 6.47382 15.1099 7.30234 14.7804Z" fill="black"/>
</svg>
