<svg width="62" height="46" viewBox="0 0 62 46" fill="none" xmlns="http://www.w3.org/2000/svg">
    <g clip-path="url(#clip0_921_2109)">
      <path
        d="M0 32.8652H3.32588L5.61363 39.8554H5.72897L8.01672 32.8652H11.3426V45.2067H8.72804V38.0718H8.65114L6.45952 45.1102H4.88309L2.69147 38.0235H2.61457V45.2067H0V32.8652Z"
        fill="#F9BA7A" />
      <path
        d="M15.166 45.2067H12.2822L15.5312 32.8652H19.1839L22.4329 45.2067H19.5492L17.396 36.264H17.3191L15.166 45.2067ZM14.6277 40.3375H20.049V42.8444H14.6277V40.3375Z"
        fill="#F9BA7A" />
      <path
        d="M27.1691 45.2067H23.3818V32.8652H27.1307C28.1432 32.8652 29.018 33.1123 29.7549 33.6064C30.495 34.0966 31.0653 34.8036 31.4658 35.7276C31.8696 36.6476 32.0715 37.7503 32.0715 39.036C32.0715 40.3215 31.8712 41.4263 31.4707 42.3503C31.0701 43.2702 30.503 43.9774 29.7693 44.4715C29.0356 44.9615 28.1689 45.2067 27.1691 45.2067ZM26.0541 42.3623H27.0731C27.56 42.3623 27.975 42.2639 28.3179 42.067C28.6639 41.8702 28.9266 41.5307 29.106 41.0486C29.2887 40.5665 29.38 39.8956 29.38 39.036C29.38 38.1762 29.287 37.5053 29.1012 37.0232C28.9186 36.5411 28.6494 36.2017 28.2937 36.0048C27.9413 35.8079 27.5087 35.7095 26.9961 35.7095H26.0541V42.3623Z"
        fill="#F9BA7A" />
      <path
        d="M33.3076 45.2067V32.8652H37.5562C38.2868 32.8652 38.926 33.032 39.474 33.3654C40.0218 33.6988 40.4481 34.1789 40.7524 34.8055C41.0568 35.4323 41.209 36.1835 41.209 37.0593C41.209 37.9432 41.052 38.6884 40.738 39.295C40.4272 39.9017 39.9898 40.3596 39.4258 40.669C38.8652 40.9783 38.2099 41.133 37.4602 41.133H34.9224V38.5297H36.9219C37.2359 38.5297 37.5034 38.4815 37.7245 38.3851C37.9488 38.2847 38.1202 38.126 38.2387 37.9091C38.3605 37.6921 38.4214 37.4089 38.4214 37.0593C38.4214 36.7058 38.3605 36.4186 38.2387 36.1977C38.1202 35.9727 37.9488 35.8079 37.7245 35.7034C37.5034 35.5951 37.2359 35.5408 36.9219 35.5408H35.9799V45.2067H33.3076ZM39.075 39.5421L41.5358 45.2067H38.6328L36.2297 39.5421H39.075Z"
        fill="#F9BA7A" />
      <path d="M45.0189 32.8652V45.2067H42.3467V32.8652H45.0189Z" fill="#F9BA7A" />
      <path
        d="M50.0734 45.2067H46.2861V32.8652H50.035C51.0475 32.8652 51.9223 33.1123 52.6592 33.6064C53.3993 34.0966 53.9697 34.8036 54.3701 35.7276C54.7739 36.6476 54.9758 37.7503 54.9758 39.036C54.9758 40.3215 54.7755 41.4263 54.375 42.3503C53.9744 43.2702 53.4074 43.9774 52.6736 44.4715C51.9399 44.9615 51.0732 45.2067 50.0734 45.2067ZM48.9584 42.3623H49.9773C50.4644 42.3623 50.8793 42.2639 51.2222 42.067C51.5682 41.8702 51.8309 41.5307 52.0103 41.0486C52.193 40.5665 52.2843 39.8956 52.2843 39.036C52.2843 38.1762 52.1914 37.5053 52.0055 37.0232C51.8228 36.5411 51.5537 36.2017 51.198 36.0048C50.8456 35.8079 50.4131 35.7095 49.9004 35.7095H48.9584V42.3623Z"
        fill="#F9BA7A" />
      <path
        d="M0 23.5605H2.20997L3.73014 27.3615H3.80678L5.32695 23.5605H7.53692V30.2027H5.7996V26.4145H5.7485L4.29222 30.1514H3.24471L1.78842 26.3889H1.73732V30.2027H0V23.5605Z"
        fill="#BC3B7C" />
      <path
        d="M10.0773 30.2027H8.16113L10.32 23.5605H12.7471L14.906 30.2027H12.9899L11.5591 25.4546H11.508L10.0773 30.2027ZM9.71961 27.6175H13.322V28.9485H9.71961V27.6175Z"
        fill="#BC3B7C" />
      <path
        d="M15.5361 30.2027V23.5605H18.3593C18.8448 23.5605 19.2694 23.7386 19.6335 23.9156C19.9976 24.0927 20.2808 24.3476 20.483 24.6804C20.6853 25.0131 20.7864 25.412 20.7864 25.8769C20.7864 26.3462 20.6821 26.742 20.4735 27.064C20.267 27.3861 19.9764 27.6292 19.6016 27.7934C19.229 27.9577 18.7936 28.0398 18.2955 28.0398H16.6092V26.6577H17.9378C18.1464 26.6577 18.3242 26.632 18.471 26.5808C18.6202 26.5275 18.734 26.4433 18.8128 26.3281C18.8937 26.213 18.9342 26.0625 18.9342 25.8769C18.9342 25.6892 18.8937 25.5368 18.8128 25.4194C18.734 25.3 18.6202 25.2125 18.471 25.1571C18.3242 25.0995 18.1464 25.0707 17.9378 25.0707H17.3118V30.2027H15.5361ZM19.3685 27.1951L21.0036 30.2027H19.0747L17.4779 27.1951H19.3685Z"
        fill="#BC3B7C" />
      <path
        d="M21.542 30.2027V23.5605H23.3177V26.2993H23.4071L25.3744 23.5605H27.4438L25.2339 26.568L27.495 30.2027H25.3744L23.9053 27.7454L23.3177 28.5133V30.2027H21.542Z"
        fill="#BC3B7C" />
      <path
        d="M27.9717 30.2027V23.5605H32.6854V25.0835H29.7473V26.2097H32.4428V27.6431H29.7473V28.7693H32.6727V30.2027H27.9717Z"
        fill="#BC3B7C" />
      <path d="M33.3877 25.0835V23.5605H39.0723V25.0835H37.1051V30.2027H35.3549V25.0835H33.3877Z"
        fill="#BC3B7C" />
      <path d="M41.5158 23.5605V30.2027H39.7402V23.5605H41.5158Z" fill="#BC3B7C" />
      <path
        d="M48.0174 23.5605V30.2027H46.5356L44.1724 26.76H44.134V30.2027H42.3584V23.5605H43.8657L46.1906 27.08H46.2418V23.5605H48.0174Z"
        fill="#BC3B7C" />
      <path
        d="M53.1041 25.813C53.0764 25.6999 53.0328 25.6007 52.9732 25.5154C52.9135 25.4279 52.839 25.3544 52.7496 25.2946C52.6623 25.2328 52.5601 25.1869 52.443 25.1571C52.3281 25.1251 52.2014 25.1091 52.0629 25.1091C51.7648 25.1091 51.5105 25.1805 51.2997 25.3235C51.091 25.4664 50.9313 25.6722 50.8206 25.941C50.712 26.2097 50.6578 26.5339 50.6578 26.9136C50.6578 27.2975 50.7099 27.626 50.8142 27.899C50.9186 28.1721 51.0741 28.3811 51.2805 28.5262C51.4871 28.6711 51.7436 28.7437 52.0502 28.7437C52.3205 28.7437 52.5452 28.7042 52.724 28.6254C52.905 28.5464 53.0402 28.4344 53.1296 28.2893C53.219 28.1444 53.2638 27.9737 53.2638 27.7775L53.5703 27.8095H52.0757V26.5425H54.9755V27.4511C54.9755 28.0484 54.8489 28.5592 54.5955 28.9837C54.3442 29.406 53.9972 29.7302 53.5544 29.9563C53.1137 30.1803 52.608 30.2923 52.0374 30.2923C51.4008 30.2923 50.8419 30.1568 50.3607 29.8859C49.8796 29.615 49.5038 29.229 49.2334 28.7277C48.9651 28.2264 48.8311 27.6303 48.8311 26.9392C48.8311 26.3974 48.913 25.9175 49.077 25.4994C49.243 25.0814 49.4729 24.7284 49.7668 24.4404C50.0606 24.1504 50.4001 23.9317 50.7855 23.7845C51.1709 23.6352 51.5839 23.5605 52.0247 23.5605C52.4121 23.5605 52.7719 23.616 53.1041 23.7269C53.4383 23.8356 53.7332 23.9914 53.9887 24.194C54.2464 24.3945 54.4539 24.6323 54.6115 24.9076C54.769 25.1827 54.8648 25.4845 54.8989 25.813H53.1041Z"
        fill="#BC3B7C" />
      <path fill-rule="evenodd" clip-rule="evenodd"
        d="M46.4593 21.2448C45.294 21.2448 44.1924 20.9913 43.1545 20.484C42.1349 19.9768 41.3064 19.2258 40.6692 18.2308C40.0319 17.2359 39.7133 16.0165 39.7133 14.5729V6.76441C39.6947 6.59196 39.6415 6.4439 39.5535 6.32027C39.442 6.14411 39.3027 6.0071 39.1356 5.90923C38.9684 5.81136 38.7826 5.76242 38.5783 5.76242C38.374 5.76242 38.179 5.81136 37.9932 5.90923C37.8075 6.0071 37.6589 6.14411 37.5474 6.32027C37.5041 6.39334 37.4709 6.47493 37.4478 6.56504C37.4468 6.5905 37.4464 6.61638 37.4464 6.64268V15.2382C37.4464 15.9921 37.298 16.7112 37.0291 17.3683C36.8707 17.8197 36.6628 18.2377 36.4052 18.6223C35.755 19.6205 34.91 20.3741 33.8698 20.883C32.8296 21.3919 31.7152 21.6464 30.5265 21.6464C29.3378 21.6464 28.214 21.3919 27.1554 20.883C26.1152 20.3741 25.27 19.6205 24.62 18.6223C23.9699 17.6239 23.6449 16.4006 23.6449 14.9521V6.99556C23.6449 6.7411 23.5891 6.52578 23.4777 6.34963C23.3848 6.15389 23.2548 6.0071 23.0876 5.90923C22.9205 5.81136 22.7255 5.76242 22.5025 5.76242C22.2797 5.76242 22.0754 5.81136 21.8896 5.90923C21.7224 6.0071 21.5831 6.15389 21.4717 6.34963C21.3788 6.52578 21.3324 6.7411 21.3324 6.99556L21.3321 16.3027C21.3321 19.0431 19.1106 21.2647 16.3703 21.2647H11.0886C9.3427 21.2647 7.78248 21.02 6.40801 20.5306C5.03354 20.0217 3.87267 19.3171 2.9254 18.4167C1.97812 17.4967 1.25375 16.4104 0.752245 15.1577C0.250748 13.905 0 12.5153 0 10.9885C0 9.46181 0.250748 8.07209 0.752245 6.81939C1.25375 5.56668 1.97812 4.49014 2.9254 3.58976C3.89124 2.66981 5.05211 1.96516 6.40801 1.47583C7.78248 0.966913 9.3427 0.712458 11.0886 0.712458H14.0419V5.67434H11.2837C10.4293 5.67434 9.67703 5.81136 9.02694 6.08538C8.37686 6.35941 7.83821 6.7411 7.411 7.23044C6.98381 7.7002 6.65876 8.25804 6.43587 8.90396C6.23156 9.54989 6.12941 10.2448 6.12941 10.9885C6.12941 11.7324 6.23156 12.4272 6.43587 13.0731C6.65876 13.719 6.98381 14.2867 7.411 14.776C7.83821 15.2457 8.37686 15.6177 9.02694 15.8917C9.67703 16.1657 10.4293 16.3027 11.2837 16.3027H15.5928L15.593 7.05427C15.593 5.62541 15.9088 4.41185 16.5403 3.4136C17.1904 2.41535 18.0448 1.65198 19.1035 1.1235C20.1622 0.595017 21.2952 0.330774 22.5025 0.330774C23.7099 0.330774 24.8336 0.595017 25.8738 1.1235C26.9138 1.65198 27.759 2.41535 28.409 3.4136C29.0592 4.41185 29.3842 5.62541 29.3842 7.05427V15.0109C29.3842 15.2654 29.4399 15.4904 29.5514 15.6862C29.6628 15.8624 29.8022 15.9994 29.9692 16.0972C30.1364 16.1951 30.3129 16.2441 30.4987 16.2441C30.703 16.2441 30.898 16.1951 31.0837 16.0972C31.2695 15.9994 31.418 15.8624 31.5295 15.6862C31.6409 15.4904 31.6967 15.2654 31.6967 15.0109V7.05427C31.6967 6.15785 31.8246 5.34616 32.0804 4.61923C32.2347 4.0562 32.4574 3.54065 32.7486 3.07261C33.3859 2.07766 34.2234 1.31683 35.2614 0.790098C36.2992 0.263366 37.4099 0 38.5934 0C39.777 0 40.8785 0.263366 41.8981 0.790098C42.9178 1.31683 43.7463 2.07766 44.3836 3.07261C45.0209 4.06754 45.3395 5.27707 45.3395 6.7012V14.6315C45.3395 14.885 45.3941 15.1094 45.5033 15.3045C45.6126 15.4801 45.7491 15.6167 45.913 15.7142C46.077 15.8118 46.2499 15.8605 46.4319 15.8605C46.6322 15.8605 46.8234 15.8118 47.0055 15.7142C47.1876 15.6167 47.3332 15.4801 47.4425 15.3045C47.5518 15.1094 47.6064 14.885 47.6064 14.6315V6.7012C47.6064 5.27707 47.925 4.06754 48.5623 3.07261C49.1996 2.07766 50.028 1.31683 51.0477 0.790098C52.0856 0.263366 53.1871 0 54.3525 0C55.5177 0 56.6103 0.263366 57.6299 0.790098C58.6496 1.31683 59.478 2.07766 60.1153 3.07261C60.7525 4.06754 61.0712 5.27707 61.0712 6.7012V45.2073H55.4723V6.55489C55.4723 6.32078 55.4177 6.1257 55.3084 5.96963C55.1991 5.79406 55.0626 5.6575 54.8986 5.55995C54.7348 5.46241 54.5527 5.41364 54.3525 5.41364C54.1522 5.41364 53.961 5.46241 53.7789 5.55995C53.5968 5.6575 53.4512 5.79406 53.3419 5.96963C53.2508 6.1257 53.2054 6.32078 53.2054 6.55489V14.5729C53.2054 16.0165 52.8776 17.2359 52.2221 18.2308C51.5848 19.2258 50.7564 19.9768 49.7368 20.484C48.717 20.9913 47.6246 21.2448 46.4593 21.2448ZM58.8875 27.4166V29.0202C59.1591 28.9899 59.4001 28.9036 59.6106 28.7614C59.8211 28.6193 59.9981 28.4316 60.1417 28.1984C60.2867 27.9653 60.397 27.6942 60.4723 27.3853C60.5477 27.0763 60.5854 26.7379 60.5854 26.3702C60.5854 25.847 60.4993 25.3732 60.3273 24.9485C60.1567 24.5239 59.9042 24.1865 59.5701 23.9363C59.2373 23.6861 58.8278 23.561 58.3415 23.561C57.858 23.561 57.4492 23.6833 57.1149 23.9277C56.7808 24.1742 56.5277 24.5088 56.3556 24.9314C56.1836 25.3561 56.0976 25.8356 56.0976 26.3702C56.0976 26.7967 56.1466 27.1711 56.2448 27.4933C56.3428 27.8155 56.4723 28.0857 56.633 28.3036C56.7951 28.5235 56.9713 28.6931 57.162 28.8126C57.3539 28.932 57.5423 29.0012 57.7272 29.0202L57.7357 27.4166C57.6418 27.3976 57.5572 27.3606 57.4818 27.3056C57.4079 27.2525 57.3446 27.1834 57.292 27.098C57.2394 27.0128 57.1989 26.9124 57.1705 26.7967C57.1434 26.681 57.13 26.5503 57.13 26.4043C57.13 26.1484 57.1747 25.9294 57.2643 25.7474C57.3553 25.5656 57.4904 25.4262 57.6695 25.3295C57.8502 25.2347 58.0741 25.1874 58.3415 25.1874C58.5946 25.1874 58.8114 25.2338 58.992 25.3267C59.1726 25.4215 59.3113 25.5598 59.408 25.7418C59.5047 25.9257 59.5529 26.1503 59.5529 26.4157C59.5529 26.5674 59.5367 26.7029 59.5039 26.8223C59.4726 26.9416 59.4272 27.0431 59.3674 27.1265C59.3091 27.2118 59.2395 27.2781 59.1584 27.3256C59.0774 27.3748 58.987 27.4051 58.8875 27.4166ZM60.5257 31.3183V29.7374H56.1572V33.6726H57.1128V31.3183H60.5257ZM60.5257 37.7577V39.3385H57.7272C57.3944 39.3385 57.1064 39.2324 56.8633 39.0201C56.6215 38.8098 56.4346 38.5159 56.3023 38.1387C56.1715 37.7615 56.1061 37.3236 56.1061 36.825C56.1061 36.3227 56.1715 35.8829 56.3023 35.5057C56.4346 35.1285 56.6215 34.8348 56.8633 34.6243C57.1064 34.4159 57.3944 34.3115 57.7272 34.3115H60.5257V35.8925H57.8295C57.6944 35.8925 57.5736 35.9323 57.4669 36.0118C57.3617 36.0915 57.2792 36.2014 57.2195 36.3417C57.1598 36.4838 57.13 36.6449 57.13 36.825C57.13 37.007 57.1598 37.1681 57.2195 37.3085C57.2792 37.4487 57.3617 37.5587 57.4669 37.6382C57.5736 37.7179 57.6944 37.7577 57.8295 37.7577H60.5257ZM60.5257 42.6147V40.0899H56.1572V42.8308C56.1572 43.2536 56.2107 43.6175 56.3172 43.9227C56.4239 44.2279 56.5704 44.4629 56.7567 44.6279C56.943 44.7947 57.1556 44.878 57.3944 44.878C57.6006 44.878 57.7798 44.8173 57.9319 44.6961C58.0855 44.5748 58.2057 44.4118 58.2924 44.207C58.3806 44.0023 58.4282 43.7748 58.4353 43.5246H58.478C58.5121 43.7502 58.5733 43.9474 58.6614 44.116C58.751 44.2848 58.8619 44.4156 58.9941 44.5084C59.1264 44.6032 59.2729 44.6506 59.4336 44.6506C59.6554 44.6506 59.848 44.5729 60.0116 44.4175C60.1751 44.2639 60.3016 44.0355 60.3913 43.7322C60.4808 43.4308 60.5257 43.0584 60.5257 42.6147ZM57.1043 42.4101V41.6707H58.0257V42.4328C58.0257 42.5939 58.0073 42.7313 57.9703 42.8451C57.9333 42.9607 57.8793 43.0498 57.8082 43.1123C57.7371 43.1749 57.6503 43.2062 57.548 43.2062C57.4015 43.2062 57.2906 43.1398 57.2152 43.0072C57.1413 42.8745 57.1043 42.6754 57.1043 42.4101ZM58.7595 42.3191V41.6707H59.5957V42.3418C59.5957 42.5389 59.5595 42.7019 59.4869 42.8308C59.4157 42.9597 59.3127 43.0242 59.1775 43.0242C59.088 43.0242 59.0119 42.9938 58.9493 42.9333C58.8882 42.8745 58.8413 42.792 58.8085 42.6859C58.7759 42.5797 58.7595 42.4574 58.7595 42.3191Z"
        fill="#00A2E3" />
    </g>
    <defs>
      <clipPath id="clip0_921_2109">
        <rect width="61.7073" height="46" fill="white" />
      </clipPath>
    </defs>
  </svg>