<svg xmlns="http://www.w3.org/2000/svg" width="35" height="36" viewBox="0 0 35 36" fill="none">
  <path d="M17.5 0.5C12.8598 0.5 8.40547 2.34488 5.12695 5.62559C1.84505 8.90759 0.000909097 13.3586 0 18C0 22.6394 1.8457 27.0937 5.12695 30.3744C8.40547 33.6551 12.8598 35.5 17.5 35.5C22.1402 35.5 26.5945 33.6551 29.873 30.3744C33.1543 27.0937 35 22.6394 35 18C35 13.3606 33.1543 8.90629 29.873 5.62559C26.5945 2.34488 22.1402 0.5 17.5 0.5Z" fill="url(#paint0_linear_101_411)"/>
  <path d="M7.92148 17.8156C13.0238 15.5931 16.4254 14.1277 18.1262 13.4198C22.9879 11.3982 23.9969 11.0472 24.6559 11.0353C24.8008 11.0329 25.1234 11.0688 25.334 11.239C25.509 11.3825 25.5582 11.5767 25.5828 11.713C25.6047 11.8491 25.6348 12.1595 25.6102 12.4018C25.3477 15.169 24.2074 21.884 23.6277 24.9834C23.3844 26.2948 22.9004 26.7345 22.4328 26.7775C21.4156 26.871 20.6445 26.1059 19.6602 25.4609C18.1207 24.4511 17.2512 23.8227 15.7555 22.8375C14.0273 21.6989 15.1484 21.073 16.1328 20.0504C16.3898 19.7827 20.8687 15.7098 20.9535 15.3404C20.9644 15.2942 20.9754 15.1219 20.8715 15.0311C20.7703 14.9401 20.6199 14.9713 20.5105 14.9959C20.3547 15.0309 17.8965 16.6573 13.1277 19.8748C12.4305 20.3544 11.7988 20.5882 11.2301 20.5759C10.6066 20.5625 9.40351 20.2226 8.50937 19.9322C7.41562 19.5759 6.54335 19.3875 6.61992 18.7824C6.6582 18.4674 7.09296 18.145 7.92148 17.8156Z" fill="white"/>
  <defs>
    <linearGradient id="paint0_linear_101_411" x1="1750" y1="0.5" x2="1750" y2="3500.5" gradientUnits="userSpaceOnUse">
      <stop stop-color="#2AABEE"/>
      <stop offset="1" stop-color="#229ED9"/>
    </linearGradient>
  </defs>
</svg>