<svg xmlns="http://www.w3.org/2000/svg" width="35" height="36" viewBox="0 0 35 36" fill="none">
  <path d="M0.747266 17.8474C0.746445 20.7978 1.52082 23.6787 2.99328 26.218L0.606445 34.8938L9.52488 32.5658C11.9916 33.9027 14.7554 34.6032 17.5639 34.6034H17.5713C26.8429 34.6034 34.3902 27.0925 34.3942 17.8606C34.3959 13.3871 32.6476 9.18054 29.4711 6.01573C26.2951 2.8512 22.0712 1.10751 17.5706 1.10547C8.29797 1.10547 0.75123 8.61596 0.747402 17.8474" fill="url(#paint0_linear_101_373)"/>
  <path d="M0.146289 17.8425C0.145332 20.8991 0.947461 23.883 2.47242 26.5131L0 35.5L9.23822 33.0886C11.7837 34.4702 14.6496 35.1987 17.5658 35.1997H17.5733C27.1775 35.1997 34.9959 27.4187 35 17.8563C35.0016 13.2221 33.1904 8.8643 29.9004 5.58612C26.61 2.30834 22.235 0.501906 17.5733 0.5C7.96742 0.5 0.150117 8.27999 0.146289 17.8425ZM5.64785 26.0602L5.30291 25.5151C3.85287 23.2197 3.08752 20.5672 3.08861 17.8435C3.09176 9.89546 9.58918 3.42906 17.5788 3.42906C21.4479 3.4307 25.0841 4.93225 27.819 7.65661C30.5538 10.3812 32.0586 14.0031 32.0577 17.8552C32.0541 25.8033 25.5566 32.2705 17.5733 32.2705H17.5675C14.9681 32.2692 12.4187 31.5742 10.1954 30.2609L9.66629 29.9485L4.18414 31.3794L5.64785 26.06V26.0602Z" fill="url(#paint1_linear_101_373)"/>
  <path d="M13.2172 10.5931C12.891 9.87129 12.5477 9.85673 12.2375 9.84407C11.9834 9.83318 11.693 9.834 11.4029 9.834C11.1125 9.834 10.6407 9.94275 10.2419 10.3763C9.8427 10.8102 8.71777 11.8588 8.71777 13.9914C8.71777 16.1243 10.2781 18.1854 10.4957 18.4749C10.7135 18.7638 13.508 23.2805 17.9338 25.018C21.6121 26.462 22.3607 26.1748 23.159 26.1024C23.9574 26.0303 25.7353 25.0541 26.098 24.0419C26.461 23.0298 26.461 22.1622 26.3522 21.9809C26.2433 21.8003 25.9529 21.6918 25.5175 21.4751C25.0819 21.2583 22.9412 20.2096 22.5421 20.0649C22.1429 19.9204 21.8526 19.8482 21.5622 20.2823C21.2718 20.7156 20.438 21.6918 20.1838 21.9809C19.9299 22.2707 19.6758 22.3067 19.2405 22.0899C18.8047 21.8724 17.4024 21.4152 15.7387 19.9386C14.4442 18.7896 13.5703 17.3706 13.3163 16.9366C13.0623 16.5032 13.2891 16.2683 13.5074 16.0523C13.7031 15.858 13.943 15.5461 14.161 15.2931C14.3781 15.0399 14.4505 14.8593 14.5957 14.5702C14.7411 14.2808 14.6683 14.0277 14.5596 13.8108C14.4505 13.594 13.6044 11.4502 13.2172 10.5931Z" fill="white"/>
  <defs>
    <linearGradient id="paint0_linear_101_373" x1="1689.99" y1="3379.94" x2="1689.99" y2="1.10547" gradientUnits="userSpaceOnUse">
      <stop stop-color="#1FAF38"/>
      <stop offset="1" stop-color="#60D669"/>
    </linearGradient>
    <linearGradient id="paint1_linear_101_373" x1="1750" y1="3500.5" x2="1750" y2="0.5" gradientUnits="userSpaceOnUse">
      <stop stop-color="#F9F9F9"/>
      <stop offset="1" stop-color="white"/>
    </linearGradient>
  </defs>
</svg>