<svg width="35" height="36" viewBox="0 0 35 36" fill="none" xmlns="http://www.w3.org/2000/svg">
<path d="M3.01011 26.4437L2.95451 26.6458L0.711865 34.7974L9.11194 32.6048L9.30311 32.5549L9.47675 32.6491C11.9487 33.9909 14.7326 34.6987 17.5658 34.6997C17.5658 34.6997 17.5659 34.6997 17.5659 34.6997H17.5733C26.9035 34.6997 34.496 27.1403 34.5 17.8561C34.5016 13.3553 32.7435 9.12491 29.5475 5.94035C26.3511 2.75621 22.1031 1.0019 17.5733 1L3.01011 26.4437ZM3.01011 26.4437L2.90498 26.2623M3.01011 26.4437L2.90498 26.2623M2.90498 26.2623C1.42433 23.7086 0.64536 20.8113 0.646289 17.8426M2.90498 26.2623L0.646289 17.8426M0.646289 17.8426C0.650006 8.55836 8.24128 1.00011 17.5731 1L0.646289 17.8426ZM5.10708 26.1406L3.70206 31.2468L3.47224 32.082L4.31042 31.8632L9.59126 30.4849L9.94109 30.6914C9.94113 30.6914 9.94116 30.6914 9.9412 30.6915C12.242 32.0505 14.8791 32.7691 17.5673 32.7705H17.5675H17.5733C25.8306 32.7705 32.554 26.0816 32.5577 17.8555V17.8554C32.5587 13.87 31.0007 10.1207 28.1719 7.3024L28.1719 7.30237C25.3431 4.48452 21.58 2.93075 17.579 2.92906H17.5788C9.31533 2.92906 2.59187 9.61699 2.58861 17.8433C2.58748 20.6612 3.37943 23.4065 4.88019 25.7821L4.8804 25.7824L5.10708 26.1406Z" stroke="black"/>
<path d="M13.2172 10.5931C12.891 9.87129 12.5477 9.85673 12.2375 9.84407C11.9834 9.83318 11.693 9.834 11.4029 9.834C11.1125 9.834 10.6407 9.94275 10.2419 10.3763C9.8427 10.8102 8.71777 11.8588 8.71777 13.9914C8.71777 16.1243 10.2781 18.1854 10.4957 18.4749C10.7135 18.7638 13.508 23.2805 17.9338 25.018C21.6121 26.462 22.3607 26.1748 23.159 26.1024C23.9574 26.0303 25.7353 25.0541 26.098 24.0419C26.461 23.0298 26.461 22.1622 26.3522 21.9809C26.2433 21.8003 25.9529 21.6918 25.5175 21.4751C25.0819 21.2583 22.9412 20.2096 22.5421 20.0649C22.1429 19.9204 21.8526 19.8482 21.5622 20.2823C21.2718 20.7156 20.438 21.6918 20.1838 21.9809C19.9299 22.2707 19.6758 22.3067 19.2405 22.0899C18.8047 21.8724 17.4024 21.4152 15.7387 19.9386C14.4442 18.7896 13.5703 17.3706 13.3163 16.9366C13.0623 16.5032 13.2891 16.2683 13.5074 16.0523C13.7031 15.858 13.943 15.5461 14.161 15.2931C14.3781 15.0399 14.4505 14.8593 14.5957 14.5702C14.7411 14.2808 14.6683 14.0277 14.5596 13.8108C14.4505 13.594 13.6044 11.4502 13.2172 10.5931Z" fill="black"/>
</svg>
